<svg xmlns="http://www.w3.org/2000/svg" version="1.1" xmlns:xlink="http://www.w3.org/1999/xlink" xmlns:svgjs="http://svgjs.dev/svgjs" width="100" height="100"><svg viewBox="0 0 100 100" xmlns="http://www.w3.org/2000/svg">
  <!-- Fond carré arrondi -->
  <rect x="5" y="5" width="90" height="90" rx="15" fill="#2563eb"></rect>
  
  <!-- Circuit imprimé décoratif -->
  <path d="M5 50 L15 50 L15 70 L40 70 L40 90" stroke="#1e40af" stroke-width="2" fill="none"></path>
  <path d="M95 50 L85 50 L85 30 L60 30 L60 10" stroke="#1e40af" stroke-width="2" fill="none"></path>
  
  <!-- Points de connexion -->
  <circle cx="15" cy="50" r="2.5" fill="#60a5fa"></circle>
  <circle cx="15" cy="70" r="2.5" fill="#60a5fa"></circle>
  <circle cx="40" cy="70" r="2.5" fill="#60a5fa"></circle>
  <circle cx="40" cy="90" r="2.5" fill="#60a5fa"></circle>
  <circle cx="85" cy="50" r="2.5" fill="#60a5fa"></circle>
  <circle cx="85" cy="30" r="2.5" fill="#60a5fa"></circle>
  <circle cx="60" cy="30" r="2.5" fill="#60a5fa"></circle>
  <circle cx="60" cy="10" r="2.5" fill="#60a5fa"></circle>
  
  <!-- Interface IDE -->
  <rect x="20" y="25" width="60" height="50" rx="3" fill="#252526"></rect>
  
  <!-- Barre de titre IDE -->
  <rect x="20" y="25" width="60" height="6" rx="2" fill="#333333"></rect>
  <circle cx="24" cy="28" r="1.5" fill="#ff5f56"></circle>
  <circle cx="29" cy="28" r="1.5" fill="#ffbd2e"></circle>
  <circle cx="34" cy="28" r="1.5" fill="#27c93f"></circle>
  
  <!-- Lignes de code avec couleurs d'IDE -->
  <rect x="25" y="38" width="12" height="3" rx="1" fill="#569cd6"></rect> <!-- bleu - mot-clé -->
  <rect x="38" y="38" width="22" height="3" rx="1" fill="#9cdcfe"></rect> <!-- bleu clair - variable -->
  <rect x="61" y="38" width="5" height="3" rx="1" fill="#d4d4d4"></rect> <!-- gris - texte -->
  
  <rect x="25" y="46" width="15" height="3" rx="1" fill="#c586c0"></rect> <!-- violet - structure de contrôle -->
  <rect x="41" y="46" width="10" height="3" rx="1" fill="#9cdcfe"></rect> <!-- bleu clair - variable -->
  <rect x="52" y="46" width="18" height="3" rx="1" fill="#ce9178"></rect> <!-- orange - chaîne -->
  
  <rect x="30" y="54" width="15" height="3" rx="1" fill="#6a9955"></rect> <!-- vert - commentaire -->
  <rect x="46" y="54" width="10" height="3" rx="1" fill="#6a9955"></rect> <!-- vert - commentaire -->
  
  <rect x="30" y="62" width="8" height="3" rx="1" fill="#dcdcaa"></rect> <!-- jaune - fonction -->
  <rect x="39" y="62" width="3" height="3" rx="1" fill="#d4d4d4"></rect> <!-- gris - texte -->
  <rect x="43" y="62" width="15" height="3" rx="1" fill="#b5cea8"></rect> <!-- vert clair - nombre -->
  
  <!-- Curseur clignotant -->
  <rect x="59" y="62" width="1" height="3" fill="#007acc"></rect>
  
  <!-- Élément petit K discret -->
  <path d="M85 15 L85 20 M85 17.5 L90 15 M85 17.5 L90 20" stroke="#dbeafe" stroke-width="1.5" stroke-linecap="round" stroke-linejoin="round" fill="none"></path>
  
  <!-- Élément petit F discret -->
  <path d="M15 80 L15 85 M15 80 L20 80 M15 82.5 L18 82.5" stroke="#dbeafe" stroke-width="1.5" stroke-linecap="round" stroke-linejoin="round" fill="none"></path>
</svg><style>@media (prefers-color-scheme: light) { :root { filter: none; } }
@media (prefers-color-scheme: dark) { :root { filter: none; } }
</style></svg>